<?xml version="1.0" encoding="UTF-8" standalone="no"?>
<!-- Created with Inkscape (http://www.inkscape.org/) -->
<svg
   xmlns:dc="http://purl.org/dc/elements/1.1/"
   xmlns:cc="http://web.resource.org/cc/"
   xmlns:rdf="http://www.w3.org/1999/02/22-rdf-syntax-ns#"
   xmlns:svg="http://www.w3.org/2000/svg"
   xmlns="http://www.w3.org/2000/svg"
   xmlns:xlink="http://www.w3.org/1999/xlink"
   xmlns:sodipodi="http://sodipodi.sourceforge.net/DTD/sodipodi-0.dtd"
   xmlns:inkscape="http://www.inkscape.org/namespaces/inkscape"
   width="744.09448819"
   height="1052.3622047"
   id="svg28243"
   sodipodi:version="0.32"
   inkscape:version="0.44.1"
   sodipodi:docbase="/Users/alex/Mindquarry/hack/mindquarry-webapp/mindquarry-webapp-resources/src/main/svg-images"
   sodipodi:docname="collapse-button-open-and-closed.svg">
  <defs
     id="defs28245">
    <linearGradient
       inkscape:collect="always"
       xlink:href="#linearGradient12860"
       id="linearGradient23020"
       gradientUnits="userSpaceOnUse"
       x1="-59.192905"
       y1="174.67133"
       x2="-68.136971"
       y2="175.8434" />
    <linearGradient
       id="linearGradient12860">
      <stop
         style="stop-color:#656565;stop-opacity:1;"
         offset="0"
         id="stop12863" />
      <stop
         style="stop-color:#909090;stop-opacity:1;"
         offset="1"
         id="stop12865" />
    </linearGradient>
    <linearGradient
       inkscape:collect="always"
       xlink:href="#linearGradient12860"
       id="linearGradient21641"
       gradientUnits="userSpaceOnUse"
       x1="-63.781418"
       y1="177.71371"
       x2="-67.23922"
       y2="171.25488" />
  </defs>
  <sodipodi:namedview
     id="base"
     pagecolor="#ffffff"
     bordercolor="#666666"
     borderopacity="1.0"
     gridtolerance="10000"
     guidetolerance="10"
     objecttolerance="10"
     inkscape:pageopacity="0.0"
     inkscape:pageshadow="2"
     inkscape:zoom="4.0549493"
     inkscape:cx="254.73203"
     inkscape:cy="809.21956"
     inkscape:document-units="px"
     inkscape:current-layer="layer1"
     inkscape:window-width="823"
     inkscape:window-height="577"
     inkscape:window-x="118"
     inkscape:window-y="165" />
  <metadata
     id="metadata28248">
    <rdf:RDF>
      <cc:Work
         rdf:about="">
        <dc:format>image/svg+xml</dc:format>
        <dc:type
           rdf:resource="http://purl.org/dc/dcmitype/StillImage" />
      </cc:Work>
    </rdf:RDF>
  </metadata>
  <g
     inkscape:label="Layer 1"
     inkscape:groupmode="layer"
     id="layer1">
    <path
       transform="matrix(1.308522,0,0,1.308522,299.1164,10.70605)"
       d="M -58.564776,174.6338 C -58.574595,175.79214 -67.4864,180.99512 -68.501624,180.42596 C -69.516847,179.85679 -69.518859,169.48413 -68.502155,168.91699 C -67.485452,168.34985 -58.554957,173.47546 -58.564776,174.6338 z "
       inkscape:randomized="-0.01"
       inkscape:rounded="0.1"
       inkscape:flatsided="true"
       sodipodi:arg2="1.0471976"
       sodipodi:arg1="0"
       sodipodi:r2="3.3475161"
       sodipodi:r1="6.6950321"
       sodipodi:cy="174.67693"
       sodipodi:cx="-65.209938"
       sodipodi:sides="3"
       id="path13231"
       style="fill:url(#linearGradient21641);fill-opacity:1;stroke:none;stroke-width:0.95527625;stroke-linejoin:round;stroke-miterlimit:4;stroke-dasharray:none;stroke-dashoffset:0;stroke-opacity:1;display:inline"
       sodipodi:type="star" />
    <path
       sodipodi:nodetypes="cssc"
       id="path13233"
       d="M 216.34841,235.30245 C 216.33556,236.81817 210.80896,237.36116 209.48052,236.61641 C 208.15208,235.87163 208.14944,232.47976 209.47982,231.73765 C 210.8102,230.99553 216.36125,233.78674 216.34841,235.30245 z "
       style="opacity:0.2837838;fill:white;fill-opacity:1;stroke:none;stroke-width:0.95527625;stroke-linejoin:round;stroke-miterlimit:4;stroke-dashoffset:0;stroke-opacity:1;display:inline" />
    <path
       id="path13235"
       d="M 209.17063,231.18819 C 208.65037,231.4784 208.59139,231.91048 208.45188,232.40694 C 208.31238,232.9034 208.19348,233.50595 208.10813,234.21944 C 207.93744,235.64642 207.85792,237.44181 207.85813,239.25069 C 207.85834,241.05957 207.93726,242.88594 208.10813,244.31319 C 208.19357,245.02681 208.31247,245.62911 208.45188,246.12569 C 208.5913,246.62227 208.65145,247.05337 209.17063,247.34444 C 209.68395,247.63222 210.07884,247.47603 210.57688,247.34444 C 211.07492,247.21285 211.66922,247.00568 212.32688,246.71944 C 213.64221,246.14696 215.23766,245.31577 216.79563,244.40694 C 218.35361,243.49811 219.86822,242.51957 221.01438,241.65694 C 221.58747,241.22563 222.06061,240.80611 222.42063,240.43819 C 222.78066,240.07027 223.10315,239.80759 223.10813,239.21944 C 223.11316,238.62652 222.77988,238.36677 222.42063,238.00069 C 222.06139,237.63461 221.58717,237.23992 221.01438,236.81319 C 219.86882,235.95973 218.35536,234.99074 216.79563,234.09444 C 215.23591,233.19814 213.64435,232.37627 212.32688,231.81319 C 211.66815,231.53165 211.0754,231.31686 210.57688,231.18819 C 210.07837,231.05952 209.6818,230.90305 209.17063,231.18819 z M 209.79563,232.28194 C 209.61707,232.38155 209.86924,232.2737 210.26438,232.37569 C 210.65953,232.47768 211.20319,232.70288 211.82688,232.96944 C 213.07426,233.50256 214.64423,234.31104 216.17063,235.18819 C 217.69704,236.06534 219.18091,237.00599 220.26438,237.81319 C 220.80612,238.21679 221.26308,238.58776 221.54563,238.87569 C 221.82819,239.16362 221.85632,239.43344 221.85813,239.21944 C 221.85991,239.01022 221.79974,239.27158 221.51438,239.56319 C 221.22903,239.8548 220.80711,240.24847 220.26438,240.65694 C 219.17893,241.47387 217.69564,242.42359 216.17063,243.31319 C 214.64562,244.20279 213.07208,245.02123 211.82688,245.56319 C 211.20429,245.83417 210.65839,246.05284 210.26438,246.15694 C 209.87037,246.26104 209.61443,246.1491 209.79563,246.25069 C 209.98271,246.35557 209.74919,246.20433 209.63938,245.81319 C 209.52958,245.42205 209.43897,244.8321 209.35813,244.15694 C 209.19647,242.80662 209.10834,241.02088 209.10813,239.25069 C 209.10793,237.4805 209.19666,235.72561 209.35813,234.37569 C 209.43887,233.70073 209.52958,233.14145 209.63938,232.75069 C 209.74919,232.35993 209.9833,232.17726 209.79563,232.28194 z "
       style="fill:black;fill-opacity:1;stroke:none;stroke-width:1.25;stroke-linejoin:round;stroke-miterlimit:4;stroke-dashoffset:0;stroke-opacity:1;display:inline" />
    <g
       style="display:inline"
       transform="translate(330.217,106.5209)"
       id="g23006"
       inkscape:export-filename="/Users/alex/Mindquarry/hack/mindquarry-webapp/mindquarry-webapp-resources/src/main/resources/COB-INF/buttons/open.gif"
       inkscape:export-xdpi="90"
       inkscape:export-ydpi="90">
      <path
         sodipodi:type="star"
         style="opacity:1;fill:url(#linearGradient23020);fill-opacity:1;stroke:none;stroke-width:0.95527625;stroke-linejoin:round;stroke-miterlimit:4;stroke-dasharray:none;stroke-dashoffset:0;stroke-opacity:1;display:inline"
         id="path23008"
         sodipodi:sides="3"
         sodipodi:cx="-65.209938"
         sodipodi:cy="174.67693"
         sodipodi:r1="6.6950321"
         sodipodi:r2="3.3475161"
         sodipodi:arg1="0"
         sodipodi:arg2="1.0471976"
         inkscape:flatsided="true"
         inkscape:rounded="0.1"
         inkscape:randomized="-0.01"
         d="M -58.564776,174.6338 C -58.574595,175.79214 -67.4864,180.99512 -68.501624,180.42596 C -69.516847,179.85679 -69.518859,169.48413 -68.502155,168.91699 C -67.485452,168.34985 -58.554957,173.47546 -58.564776,174.6338 z "
         transform="matrix(0,1.308522,-1.308522,0,168.3846,216.6407)" />
      <path
         style="opacity:0.2837838;fill:white;fill-opacity:1;stroke:none;stroke-width:0.95527625;stroke-linejoin:round;stroke-miterlimit:4;stroke-dashoffset:0;stroke-opacity:1;display:inline"
         d="M -65.870652,130.87058 C -67.386362,130.85773 -68.059888,128.46376 -67.315128,127.13531 C -66.570358,125.80687 -57.174306,125.15161 -56.432196,126.48199 C -55.690076,127.81237 -64.354932,130.88343 -65.870652,130.87058 z "
         id="path23010"
         sodipodi:nodetypes="cssc" />
      <path
         style="fill:black;fill-opacity:1;stroke:none;stroke-width:1.25;stroke-linejoin:round;stroke-miterlimit:4;stroke-dashoffset:0;stroke-opacity:1;display:inline"
         d="M -52.097498,126.69485 C -52.387708,126.17459 -52.819788,126.11561 -53.316248,125.9761 C -53.812708,125.83659 -54.415258,125.7177 -55.128748,125.63235 C -56.555728,125.46166 -58.351118,125.38214 -60.159998,125.38235 C -61.968878,125.38256 -63.795248,125.46147 -65.222498,125.63235 C -65.936118,125.71779 -66.538418,125.83669 -67.034998,125.9761 C -67.531578,126.11551 -67.962678,126.17566 -68.253748,126.69485 C -68.541528,127.20817 -68.385338,127.60306 -68.253748,128.1011 C -68.122158,128.59914 -67.914988,129.19344 -67.628748,129.8511 C -67.056268,131.16642 -66.225078,132.76187 -65.316248,134.31985 C -64.407418,135.87783 -63.428878,137.39244 -62.566248,138.5386 C -62.134938,139.11168 -61.715418,139.58483 -61.347498,139.94485 C -60.979578,140.30487 -60.716898,140.62736 -60.128748,140.63235 C -59.535828,140.63738 -59.276078,140.3041 -58.909998,139.94485 C -58.543918,139.5856 -58.149228,139.11138 -57.722498,138.5386 C -56.869038,137.39303 -55.900048,135.87958 -55.003748,134.31985 C -54.107448,132.76012 -53.285578,131.16857 -52.722498,129.8511 C -52.440958,129.19237 -52.226168,128.59962 -52.097498,128.1011 C -51.968828,127.60259 -51.812358,127.20601 -52.097498,126.69485 z M -53.191248,127.31985 C -53.290858,127.14128 -53.183008,127.39346 -53.284998,127.7886 C -53.386988,128.18374 -53.612188,128.72741 -53.878748,129.3511 C -54.411868,130.59848 -55.220348,132.16845 -56.097498,133.69485 C -56.974648,135.22125 -57.915298,136.70513 -58.722498,137.7886 C -59.126098,138.33034 -59.497068,138.7873 -59.784998,139.06985 C -60.072928,139.35241 -60.342748,139.38054 -60.128748,139.38235 C -59.919528,139.38412 -60.180888,139.32395 -60.472498,139.0386 C -60.764108,138.75325 -61.157778,138.33133 -61.566248,137.7886 C -62.383178,136.70314 -63.332898,135.21986 -64.222498,133.69485 C -65.112098,132.16984 -65.930538,130.5963 -66.472498,129.3511 C -66.743478,128.7285 -66.962148,128.18261 -67.066248,127.7886 C -67.170348,127.39459 -67.058408,127.13864 -67.159998,127.31985 C -67.264878,127.50693 -67.113638,127.27341 -66.722498,127.1636 C -66.331358,127.05379 -65.741408,126.96318 -65.066248,126.88235 C -63.715928,126.72068 -61.930188,126.63256 -60.159998,126.63235 C -58.389808,126.63214 -56.634918,126.72088 -55.284998,126.88235 C -54.610038,126.96309 -54.050758,127.0538 -53.659998,127.1636 C -53.269238,127.2734 -53.086568,127.50752 -53.191248,127.31985 z "
         id="path23012" />
    </g>
    <g
       id="g28285"
       inkscape:export-filename="/Users/alex/Mindquarry/hack/mindquarry-webapp/mindquarry-webapp-resources/src/main/resources/COB-INF/buttons/collapsed_blue_button.gif"
       inkscape:export-xdpi="90"
       inkscape:export-ydpi="90"
       transform="translate(28.90954,27.8816)">
      <path
         sodipodi:type="star"
         style="fill:#5f8dd3;fill-opacity:1;stroke:none;stroke-width:0.95527625;stroke-linejoin:round;stroke-miterlimit:4;stroke-dasharray:none;stroke-dashoffset:0;stroke-opacity:1;display:inline"
         id="path28294"
         sodipodi:sides="3"
         sodipodi:cx="-65.209938"
         sodipodi:cy="174.67693"
         sodipodi:r1="6.6950321"
         sodipodi:r2="3.3475161"
         sodipodi:arg1="0"
         sodipodi:arg2="1.0471976"
         inkscape:flatsided="true"
         inkscape:rounded="0.1"
         inkscape:randomized="-0.01"
         d="M -58.564776,174.6338 C -58.574595,175.79214 -67.4864,180.99512 -68.501624,180.42596 C -69.516847,179.85679 -69.518859,169.48413 -68.502155,168.91699 C -67.485452,168.34985 -58.554957,173.47546 -58.564776,174.6338 z "
         transform="matrix(1.308522,0,0,1.308522,299.1164,10.70605)" />
      <path
         style="opacity:0.2837838;fill:white;fill-opacity:1;stroke:none;stroke-width:0.95527625;stroke-linejoin:round;stroke-miterlimit:4;stroke-dashoffset:0;stroke-opacity:1;display:inline"
         d="M 216.34841,235.30245 C 216.33556,236.81817 210.80896,237.36116 209.48052,236.61641 C 208.15208,235.87163 208.14944,232.47976 209.47982,231.73765 C 210.8102,230.99553 216.36125,233.78674 216.34841,235.30245 z "
         id="path28296"
         sodipodi:nodetypes="cssc" />
      <path
         style="fill:#214478;fill-opacity:1;stroke:none;stroke-width:1.25;stroke-linejoin:round;stroke-miterlimit:4;stroke-dashoffset:0;stroke-opacity:1;display:inline"
         d="M 209.17063,231.18819 C 208.65037,231.4784 208.59139,231.91048 208.45188,232.40694 C 208.31238,232.9034 208.19348,233.50595 208.10813,234.21944 C 207.93744,235.64642 207.85792,237.44181 207.85813,239.25069 C 207.85834,241.05957 207.93726,242.88594 208.10813,244.31319 C 208.19357,245.02681 208.31247,245.62911 208.45188,246.12569 C 208.5913,246.62227 208.65145,247.05337 209.17063,247.34444 C 209.68395,247.63222 210.07884,247.47603 210.57688,247.34444 C 211.07492,247.21285 211.66922,247.00568 212.32688,246.71944 C 213.64221,246.14696 215.23766,245.31577 216.79563,244.40694 C 218.35361,243.49811 219.86822,242.51957 221.01438,241.65694 C 221.58747,241.22563 222.06061,240.80611 222.42063,240.43819 C 222.78066,240.07027 223.10315,239.80759 223.10813,239.21944 C 223.11316,238.62652 222.77988,238.36677 222.42063,238.00069 C 222.06139,237.63461 221.58717,237.23992 221.01438,236.81319 C 219.86882,235.95973 218.35536,234.99074 216.79563,234.09444 C 215.23591,233.19814 213.64435,232.37627 212.32688,231.81319 C 211.66815,231.53165 211.0754,231.31686 210.57688,231.18819 C 210.07837,231.05952 209.6818,230.90305 209.17063,231.18819 z M 209.79563,232.28194 C 209.61707,232.38155 209.86924,232.2737 210.26438,232.37569 C 210.65953,232.47768 211.20319,232.70288 211.82688,232.96944 C 213.07426,233.50256 214.64423,234.31104 216.17063,235.18819 C 217.69704,236.06534 219.18091,237.00599 220.26438,237.81319 C 220.80612,238.21679 221.26308,238.58776 221.54563,238.87569 C 221.82819,239.16362 221.85632,239.43344 221.85813,239.21944 C 221.85991,239.01022 221.79974,239.27158 221.51438,239.56319 C 221.22903,239.8548 220.80711,240.24847 220.26438,240.65694 C 219.17893,241.47387 217.69564,242.42359 216.17063,243.31319 C 214.64562,244.20279 213.07208,245.02123 211.82688,245.56319 C 211.20429,245.83417 210.65839,246.05284 210.26438,246.15694 C 209.87037,246.26104 209.61443,246.1491 209.79563,246.25069 C 209.98271,246.35557 209.74919,246.20433 209.63938,245.81319 C 209.52958,245.42205 209.43897,244.8321 209.35813,244.15694 C 209.19647,242.80662 209.10834,241.02088 209.10813,239.25069 C 209.10793,237.4805 209.19666,235.72561 209.35813,234.37569 C 209.43887,233.70073 209.52958,233.14145 209.63938,232.75069 C 209.74919,232.35993 209.9833,232.17726 209.79563,232.28194 z "
         id="path28298" />
    </g>
  </g>
</svg>
