<?xml version="1.0" encoding="UTF-8" standalone="no"?>
<!-- Created with Inkscape (http://www.inkscape.org/) -->
<svg
   xmlns:dc="http://purl.org/dc/elements/1.1/"
   xmlns:cc="http://web.resource.org/cc/"
   xmlns:rdf="http://www.w3.org/1999/02/22-rdf-syntax-ns#"
   xmlns:svg="http://www.w3.org/2000/svg"
   xmlns="http://www.w3.org/2000/svg"
   xmlns:xlink="http://www.w3.org/1999/xlink"
   xmlns:sodipodi="http://inkscape.sourceforge.net/DTD/sodipodi-0.dtd"
   xmlns:inkscape="http://www.inkscape.org/namespaces/inkscape"
   width="210mm"
   height="297mm"
   id="svg3797"
   sodipodi:version="0.32"
   inkscape:version="0.43"
   sodipodi:docbase="/home/lars/mindquarry-webapp/mindquarry-webapp-resources/src/main/svg-images"
   sodipodi:docname="teams.svg">
  <defs
     id="defs3799">
    <radialGradient
       inkscape:collect="always"
       xlink:href="#linearGradient4362"
       id="radialGradient11488"
       gradientUnits="userSpaceOnUse"
       gradientTransform="matrix(-0.517826,0,0,0.742291,463.6562,479.2883)"
       cx="80.599566"
       cy="33.402904"
       fx="81.553592"
       fy="32.061308"
       r="35.284406" />
    <linearGradient
       inkscape:collect="always"
       xlink:href="#linearGradient4376"
       id="linearGradient11486"
       gradientUnits="userSpaceOnUse"
       gradientTransform="matrix(-0.708299,0,0,0.542677,464.9188,479.5409)"
       x1="64.786456"
       y1="53.505203"
       x2="63.804663"
       y2="67.164412" />
    <radialGradient
       inkscape:collect="always"
       xlink:href="#linearGradient4362"
       id="radialGradient11484"
       gradientUnits="userSpaceOnUse"
       gradientTransform="matrix(-0.695765,0,0,0.552454,464.54,481.0561)"
       cx="49.760482"
       cy="102.70191"
       fx="50.092871"
       fy="101.92288"
       r="39.648127" />
    <radialGradient
       inkscape:collect="always"
       xlink:href="#linearGradient106213"
       id="radialGradient10455"
       gradientUnits="userSpaceOnUse"
       gradientTransform="matrix(1,0,0,0.25641,-4.690694e-15,286.5826)"
       cx="542.81451"
       cy="385.40417"
       fx="542.81451"
       fy="385.40417"
       r="20.89809" />
    <radialGradient
       inkscape:collect="always"
       xlink:href="#linearGradient4362"
       id="radialGradient11513"
       gradientUnits="userSpaceOnUse"
       gradientTransform="matrix(0.477562,0,0,0.793166,243.1163,483.2277)"
       cx="91.339457"
       cy="58.80624"
       fx="91.339457"
       fy="58.80624"
       r="3.3313689" />
    <radialGradient
       inkscape:collect="always"
       xlink:href="#linearGradient4362"
       id="radialGradient11511"
       gradientUnits="userSpaceOnUse"
       gradientTransform="matrix(0.347307,0,0,1.090637,243.1163,483.2277)"
       cx="131.16578"
       cy="53.64668"
       fx="131.8606"
       fy="53.918095"
       r="8.6852885" />
    <radialGradient
       inkscape:collect="always"
       xlink:href="#linearGradient4362"
       id="radialGradient11509"
       gradientUnits="userSpaceOnUse"
       gradientTransform="matrix(0.671759,0,0,0.563872,243.1163,483.2277)"
       cx="45.139623"
       cy="88.322677"
       fx="45.50637"
       fy="87.892895"
       r="22.00904" />
    <linearGradient
       id="linearGradient4376">
      <stop
         style="stop-color:#000000;stop-opacity:0.52645504;"
         offset="0.0000000"
         id="stop4377" />
      <stop
         style="stop-color:#000000;stop-opacity:0.0000000;"
         offset="1.0000000"
         id="stop4378" />
    </linearGradient>
    <linearGradient
       inkscape:collect="always"
       xlink:href="#linearGradient4376"
       id="linearGradient11507"
       gradientUnits="userSpaceOnUse"
       gradientTransform="matrix(0.831893,0,0,0.45533,243.1163,483.2277)"
       x1="51.55137"
       y1="58.029798"
       x2="51.227894"
       y2="75.770453" />
    <linearGradient
       id="linearGradient4362">
      <stop
         style="stop-color:#ffffff;stop-opacity:0.66666669;"
         offset="0.0000000"
         id="stop4363" />
      <stop
         style="stop-color:#ffffff;stop-opacity:0.0000000;"
         offset="1.0000000"
         id="stop4364" />
    </linearGradient>
    <radialGradient
       inkscape:collect="always"
       xlink:href="#linearGradient4362"
       id="radialGradient11505"
       gradientUnits="userSpaceOnUse"
       gradientTransform="matrix(0.690199,-1.340151e-2,1.11653e-2,0.57503,242.7559,483.0041)"
       cx="47.824849"
       cy="32.838287"
       fx="48.240591"
       fy="33.246964"
       r="22.618133" />
    <linearGradient
       inkscape:collect="always"
       id="linearGradient106213">
      <stop
         style="stop-color:gray;stop-opacity:1;"
         offset="0"
         id="stop106215" />
      <stop
         style="stop-color:gray;stop-opacity:0;"
         offset="1"
         id="stop106217" />
    </linearGradient>
    <radialGradient
       inkscape:collect="always"
       xlink:href="#linearGradient106213"
       id="radialGradient11503"
       gradientUnits="userSpaceOnUse"
       gradientTransform="matrix(1,0,0,0.25641,2.886857e-13,286.5826)"
       cx="542.81451"
       cy="385.40417"
       fx="542.81451"
       fy="385.40417"
       r="20.89809" />
  </defs>
  <sodipodi:namedview
     id="base"
     pagecolor="#ffffff"
     bordercolor="#666666"
     borderopacity="1.0"
     inkscape:pageopacity="0.0"
     inkscape:pageshadow="2"
     inkscape:zoom="0.35"
     inkscape:cx="350"
     inkscape:cy="520"
     inkscape:document-units="px"
     inkscape:current-layer="layer1"
     inkscape:window-width="896"
     inkscape:window-height="589"
     inkscape:window-x="5"
     inkscape:window-y="49" />
  <metadata
     id="metadata3802">
    <rdf:RDF>
      <cc:Work
         rdf:about="">
        <dc:format>image/svg+xml</dc:format>
        <dc:type
           rdf:resource="http://purl.org/dc/dcmitype/StillImage" />
      </cc:Work>
    </rdf:RDF>
  </metadata>
  <g
     inkscape:label="Ebene 1"
     inkscape:groupmode="layer"
     id="layer1">
    <g
       style="display:inline"
       id="g11573"
       inkscape:export-filename="/home/lars/teams.png"
       inkscape:export-xdpi="90"
       inkscape:export-ydpi="90"
       transform="translate(-483.28,198.0542)">
      <g
         transform="translate(-180.3553,-216.1514)"
         id="g11440"
         style="display:inline">
        <path
           sodipodi:type="arc"
           style="fill:url(#radialGradient11503);fill-opacity:1;stroke:none;stroke-width:3.54330707;stroke-linejoin:round;stroke-miterlimit:4;stroke-dasharray:none;stroke-dashoffset:0;stroke-opacity:1;display:inline"
           id="path11526"
           sodipodi:cx="542.81451"
           sodipodi:cy="385.40417"
           sodipodi:rx="20.89809"
           sodipodi:ry="5.3584847"
           d="M 563.7126 385.40417 A 20.89809 5.3584847 0 1 1  521.91642,385.40417 A 20.89809 5.3584847 0 1 1  563.7126 385.40417 z"
           transform="matrix(1.325725,0,0,1.325725,-437.2473,43.6072)" />
        <path
           d="M 279.63324,526.46383 C 282.55628,529.65408 284.41641,535.36995 288.53525,535.36996 C 292.52122,534.26223 293.05268,524.78008 293.58415,522.74186 C 289.06671,525.8435 284.41641,527.61586 279.63324,526.46383 z "
           id="path11528"
           sodipodi:nodetypes="cccc"
           style="fill:#ffffff;fill-opacity:1;fill-rule:evenodd;stroke:#000000;stroke-width:2.30796003;stroke-linecap:round;stroke-linejoin:round;stroke-miterlimit:4;stroke-opacity:1;display:inline" />
        <path
           d="M 261.78602,542.96215 C 261.5456,558.46934 301.32215,560.24269 301.22595,542.96215 C 302.1767,529.21979 295.34192,521.40614 293.64346,522.73459 C 292.78106,523.40912 292.46063,538.38918 286.63353,534.94346 C 283.80066,533.26831 280.63202,526.83368 279.24564,526.6202 C 277.15365,526.29807 273.14781,524.60428 269.46879,521.43424 C 268.50357,520.60256 262.11187,529.15144 261.78602,542.96215 z "
           id="path11530"
           sodipodi:nodetypes="ccssssc"
           style="fill:#5e7b87;fill-opacity:1;fill-rule:evenodd;stroke:#000000;stroke-width:2.30796003;stroke-linecap:round;stroke-linejoin:round;stroke-miterlimit:4;stroke-opacity:1;display:inline" />
        <path
           style="fill:#5e7b87;fill-opacity:1;fill-rule:evenodd;stroke:#94abb4;stroke-width:0.77875;stroke-linecap:round;stroke-linejoin:round;stroke-miterlimit:4;stroke-dasharray:none;stroke-opacity:1;display:inline"
           sodipodi:nodetypes="ccssssc"
           id="path11419"
           d="M 261.78602,542.96215 C 261.5456,558.46934 301.32215,560.24269 301.22595,542.96215 C 302.1767,529.21979 295.34192,521.40614 293.64346,522.73459 C 292.78106,523.40912 292.46063,538.38918 286.63353,534.94346 C 283.80066,533.26831 280.63202,526.83368 279.24564,526.6202 C 277.15365,526.29807 273.14781,524.60428 269.46879,521.43424 C 268.50357,520.60256 262.11187,529.15144 261.78602,542.96215 z " />
        <path
           d="M 211.21884 70.290855 A 60.94183 57.825485 0 1 1  89.335178,70.290855 A 60.94183 57.825485 0 1 1  211.21884 70.290855 z"
           id="path11533"
           sodipodi:cx="150.27701"
           sodipodi:cy="70.290855"
           sodipodi:rx="60.94183"
           sodipodi:ry="57.825485"
           sodipodi:type="arc"
           style="fill:#6d4e2c;fill-opacity:1;fill-rule:evenodd;stroke:#000000;stroke-width:8.50416374;stroke-linecap:round;stroke-linejoin:round;stroke-miterlimit:4;stroke-opacity:1;display:inline"
           transform="matrix(0.271329,0,0,0.271454,241.4398,491.7386)" />
        <path
           d="M 290.85247,532.13596 C 290.85247,533.72404 289.61133,535.01292 288.08206,535.01292 C 286.5528,535.01292 285.31166,533.72404 285.31166,532.13596 C 285.31166,530.54788 285.70037,526.70171 287.22963,526.70171 C 288.7589,526.70171 290.85247,530.54788 290.85247,532.13596 z "
           id="path11535"
           sodipodi:nodetypes="ccccc"
           style="fill:#bca282;fill-opacity:1;fill-rule:evenodd;stroke:#000000;stroke-width:2.30796003;stroke-linecap:round;stroke-linejoin:round;stroke-miterlimit:4;stroke-dasharray:none;stroke-opacity:1;display:inline" />
        <path
           transform="matrix(0.271329,0,0,0.271454,241.4398,491.7386)"
           style="fill:#6d4e2c;fill-opacity:1;fill-rule:evenodd;stroke:#b48048;stroke-width:2.30294609;stroke-linecap:round;stroke-linejoin:round;stroke-miterlimit:4;stroke-dasharray:none;stroke-opacity:1;display:inline"
           sodipodi:type="arc"
           sodipodi:ry="57.825485"
           sodipodi:rx="60.94183"
           sodipodi:cy="70.290855"
           sodipodi:cx="150.27701"
           id="path11421"
           d="M 211.21884 70.290855 A 60.94183 57.825485 0 1 1  89.335178,70.290855 A 60.94183 57.825485 0 1 1  211.21884 70.290855 z" />
        <path
           d="M 278.9662,487.0118 C 267.9435,488.4403 258.79621,495.97885 262.45398,513.12592 C 263.50889,519.12266 268.15268,521.62667 269.85681,510.08026 C 274.71741,511.61013 295.76598,517.73891 299.89468,507.06628 C 302.3523,502.65511 297.24017,485.54592 278.9662,487.0118 z "
           id="path11538"
           sodipodi:nodetypes="ccccc"
           style="fill:#3f3218;fill-opacity:1;fill-rule:evenodd;stroke:#000000;stroke-width:2.30796003;stroke-linecap:round;stroke-linejoin:round;stroke-miterlimit:4;stroke-opacity:1;display:inline" />
        <path
           d="M 286.741,552.30986 C 286.65025,542.03717 285.34588,536.3213 288.86196,535.56785 C 292.24517,535.01798 294.13285,546.91116 294.66431,548.94938 C 296.62655,558.8071 288.20899,560.50061 286.741,552.30986 z "
           id="path11540"
           sodipodi:nodetypes="cccc"
           style="fill:#bca282;fill-opacity:1;fill-rule:evenodd;stroke:#000000;stroke-width:2.30796003;stroke-linecap:round;stroke-linejoin:round;stroke-miterlimit:4;stroke-opacity:1;display:inline" />
        <path
           style="fill:#3f3218;fill-opacity:1;fill-rule:evenodd;stroke:#886c34;stroke-width:0.625;stroke-linecap:round;stroke-linejoin:round;stroke-miterlimit:4;stroke-dasharray:none;stroke-opacity:1;display:inline"
           sodipodi:nodetypes="ccccc"
           id="path11423"
           d="M 278.9662,487.0118 C 267.9435,488.4403 258.79621,495.97885 262.45398,513.12592 C 263.50889,519.12266 268.15268,521.62667 269.85681,510.08026 C 274.71741,511.61013 295.76598,517.73891 299.89468,507.06628 C 302.3523,502.65511 297.24017,485.54592 278.9662,487.0118 z " />
        <path
           d="M 279.22832,487.4213 C 268.04176,488.80627 261.84861,496.26228 262.10964,505.16239 C 262.24892,509.13865 263.53253,514.09722 266.6767,516.94312 C 269.98549,515.53534 268.33284,512.59996 269.72317,509.75439 C 277.92011,511.88784 289.54803,514.67438 297.41809,510.2134 C 303.16888,505.25898 298.73836,495.61078 294.02261,491.63548 C 290.21282,488.45691 284.07666,487.0747 279.22832,487.4213 z "
           id="path11543"
           style="fill:url(#radialGradient11505);fill-opacity:1;fill-rule:evenodd;stroke:none;stroke-width:3.75;stroke-linecap:round;stroke-linejoin:round;stroke-miterlimit:4;stroke-opacity:1;display:inline"
           sodipodi:nodetypes="ccccccc" />
        <path
           d="M 299.43705,509.6504 C 293.35385,517.14191 275.17739,511.86652 270.70295,510.45819 C 270.10659,514.49883 269.14306,516.73419 268.10649,517.78596 C 270.73583,523.15176 276.42862,526.88317 283.06977,526.88317 C 292.19726,526.88317 299.59091,519.85377 299.59091,511.18904 C 299.59091,510.6609 299.4908,510.16519 299.43705,509.6504 z "
           id="path11545"
           style="fill:url(#linearGradient11507);fill-opacity:1;fill-rule:evenodd;stroke:none;stroke-width:8.50416374;stroke-linecap:round;stroke-linejoin:round;stroke-miterlimit:4;stroke-opacity:1;display:inline" />
        <path
           d="M 268.75135,522.34341 C 263.72786,529.27944 261.24993,537.36636 262.37519,545.04086 C 266.72048,552.62353 278.11508,554.91396 286.04433,554.15897 C 285.391,548.89808 285.03466,543.29736 285.75812,538.00954 C 287.29408,535.2835 283.82177,533.49506 282.28218,531.17303 C 279.48798,525.95955 276.79293,527.85182 271.16538,523.98321 C 270.62979,523.85806 269.20723,521.26395 268.75135,522.34341 z M 294.35298,526.13649 C 293.64766,529.40254 293.31923,532.92624 291.25647,535.69529 C 294.44662,539.96134 295.27245,545.61248 296.12242,550.75473 C 302.01604,546.60913 300.34632,538.23624 298.98373,532.22159 C 298.368,529.84018 296.3141,524.8684 294.57449,525.21547 C 294.52652,525.41494 294.37884,526.02895 294.35298,526.13649 z "
           id="path11547"
           style="fill:url(#radialGradient11509);fill-opacity:1;fill-rule:evenodd;stroke:none;stroke-width:3.75;stroke-linecap:round;stroke-linejoin:round;stroke-miterlimit:4;stroke-opacity:1;display:inline"
           sodipodi:nodetypes="ccccccccccccc" />
        <path
           d="M 288.31382,537.25316 C 286.30593,541.8667 288.10471,547.35019 287.69836,552.29337 C 287.57393,556.75994 293.66444,557.76124 293.36617,552.72889 C 293.05587,547.40342 291.94857,541.68473 289.06391,537.157 C 288.94851,537.12495 288.44845,537.18905 288.31382,537.25316 z "
           id="path11549"
           style="fill:url(#radialGradient11511);fill-opacity:1;fill-rule:evenodd;stroke:none;stroke-width:3.75;stroke-linecap:round;stroke-linejoin:round;stroke-miterlimit:4;stroke-opacity:1;display:inline" />
        <path
           d="M 286.27512,528.79064 C 283.72042,532.2755 289.59814,535.58733 288.71771,530.73318 C 288.31119,530.09734 286.74582,526.14642 286.27512,528.79064 z "
           id="path11551"
           style="fill:url(#radialGradient11513);fill-opacity:1;fill-rule:evenodd;stroke:none;stroke-width:3.75;stroke-linecap:round;stroke-linejoin:round;stroke-miterlimit:4;stroke-opacity:1;display:inline" />
      </g>
      <g
         transform="translate(-268.4417,-212.344)"
         id="g11490"
         style="display:inline">
        <path
           d="M 211.21884 70.290855 A 60.94183 57.825485 0 1 1  89.335178,70.290855 A 60.94183 57.825485 0 1 1  211.21884 70.290855 z"
           id="path11554"
           sodipodi:cx="150.27701"
           sodipodi:cy="70.290855"
           sodipodi:rx="60.94183"
           sodipodi:ry="57.825485"
           sodipodi:type="arc"
           style="fill:#efd7c7;fill-opacity:1;fill-rule:evenodd;stroke:#000000;stroke-width:8.50416374;stroke-linecap:round;stroke-linejoin:round;stroke-miterlimit:4;stroke-opacity:1"
           transform="matrix(-0.273325,0,0,0.273451,464.1062,489.7593)" />
        <path
           sodipodi:type="arc"
           style="fill:url(#radialGradient10455);fill-opacity:1;stroke:none;stroke-width:3.54330707;stroke-linejoin:round;stroke-miterlimit:4;stroke-dasharray:none;stroke-dashoffset:0;stroke-opacity:1;display:inline"
           id="path11556"
           sodipodi:cx="542.81451"
           sodipodi:cy="385.40417"
           sodipodi:rx="20.89809"
           sodipodi:ry="5.3584847"
           d="M 563.7126 385.40417 A 20.89809 5.3584847 0 1 1  521.91642,385.40417 A 20.89809 5.3584847 0 1 1  563.7126 385.40417 z"
           transform="matrix(1.325725,0,0,1.325725,-295.5676,41.86988)" />
        <path
           d="M 425.63181,524.73986 C 422.68726,527.95358 420.81346,533.71148 416.66433,533.71148 C 412.64905,532.59561 412.11368,523.04374 411.5783,520.99053 C 416.12896,524.11497 420.81346,525.90037 425.63181,524.73986 z "
           id="path11558"
           sodipodi:nodetypes="cccc"
           style="fill:#ffffff;fill-opacity:1;fill-rule:evenodd;stroke:#000000;stroke-width:2.32493258;stroke-linecap:round;stroke-linejoin:round;stroke-miterlimit:4;stroke-opacity:1" />
        <path
           d="M 443.61028,541.35952 C 443.85247,556.98074 403.7834,558.76714 403.8803,541.35952 C 402.92256,527.51609 409.80761,519.64499 411.51855,520.9832 C 412.3873,521.66269 412.71008,536.75292 418.58003,533.28186 C 421.43373,531.59439 424.62568,525.11244 426.02226,524.89739 C 428.12963,524.57289 432.16493,522.86664 435.87101,519.67329 C 436.84332,518.8355 443.28203,527.44724 443.61028,541.35952 z "
           id="path11560"
           sodipodi:nodetypes="ccssssc"
           style="fill:#d20000;fill-opacity:1;fill-rule:evenodd;stroke:#000000;stroke-width:2.32493258;stroke-linecap:round;stroke-linejoin:round;stroke-miterlimit:4;stroke-opacity:1" />
        <path
           style="fill:#d20000;fill-opacity:1;fill-rule:evenodd;stroke:#ff3737;stroke-width:0.75;stroke-linecap:round;stroke-linejoin:round;stroke-miterlimit:4;stroke-dasharray:none;stroke-opacity:1"
           sodipodi:nodetypes="ccssssc"
           id="path11479"
           d="M 443.61028,541.35952 C 443.85247,556.98074 403.7834,558.76714 403.8803,541.35952 C 402.92256,527.51609 409.80761,519.64499 411.51855,520.9832 C 412.3873,521.66269 412.71008,536.75292 418.58003,533.28186 C 421.43373,531.59439 424.62568,525.11244 426.02226,524.89739 C 428.12963,524.57289 432.16493,522.86664 435.87101,519.67329 C 436.84332,518.8355 443.28203,527.44724 443.61028,541.35952 z " />
        <path
           d="M 437.55148,528.98842 C 439.52192,534.38469 441.47549,540.80129 439.50687,546.30013 C 434.17047,553.70682 423.59063,553.75033 415.4236,552.38482 C 409.9232,551.40756 404.62741,546.69958 405.80021,540.6913 C 405.79604,535.9623 406.68361,531.05336 409.30355,527.05097 C 410.00974,531.3491 411.4038,538.31011 416.99573,537.96209 C 423.09925,536.76004 424.20478,528.38473 430.59755,527.62028 C 433.57463,525.40341 436.28968,523.90345 437.39482,528.70346 L 437.55148,528.98842 z "
           id="path11563"
           style="fill:url(#radialGradient11484);fill-opacity:1;fill-rule:evenodd;stroke:none;stroke-width:3.75;stroke-linecap:round;stroke-linejoin:round;stroke-miterlimit:4;stroke-opacity:1;display:inline" />
        <path
           d="M 427.84158,483.19804 C 438.72858,484.54586 444.22647,489.62328 448.15804,510.28471 C 454.1714,540.38138 449.60865,551.21617 442.7153,551.22525 C 452.28844,543.06662 423.56572,533.353 428.26675,506.89875 C 420.73044,509.77649 404.5736,513.2715 404.16852,505.44054 C 402.92089,497.69126 408.21242,482.35167 427.84158,483.19804 z "
           id="path11565"
           sodipodi:nodetypes="cccccc"
           style="fill:#000000;fill-opacity:1;fill-rule:evenodd;stroke:#000000;stroke-width:2.32493258;stroke-linecap:round;stroke-linejoin:round;stroke-miterlimit:4;stroke-opacity:1" />
        <path
           transform="matrix(-0.273325,0,0,0.273451,464.1062,489.7593)"
           style="fill:#efd7c7;fill-opacity:1;fill-rule:evenodd;stroke:#ffffff;stroke-width:2.28612828;stroke-linecap:round;stroke-linejoin:round;stroke-miterlimit:4;stroke-dasharray:none;stroke-opacity:1"
           sodipodi:type="arc"
           sodipodi:ry="57.825485"
           sodipodi:rx="60.94183"
           sodipodi:cy="70.290855"
           sodipodi:cx="150.27701"
           id="path11477"
           d="M 211.21884 70.290855 A 60.94183 57.825485 0 1 1  89.335178,70.290855 A 60.94183 57.825485 0 1 1  211.21884 70.290855 z" />
        <path
           d="M 428.17775,507.20546 C 427.28727,514.14271 426.98834,519.3133 428.76633,523.98439 C 426.7093,524.8479 424.43599,525.35998 422.0434,525.35998 C 412.85568,525.35998 406.04329,517.7648 406.03211,509.04536 C 410.77008,511.82377 422.25268,509.46795 428.17775,507.20546 z "
           id="path11568"
           style="fill:url(#linearGradient11486);fill-opacity:1;fill-rule:evenodd;stroke:none;stroke-width:8.50416374;stroke-linecap:round;stroke-linejoin:round;stroke-miterlimit:4;stroke-opacity:1;display:inline"
           sodipodi:nodetypes="ccscc" />
        <path
           style="fill:#000000;fill-opacity:1;fill-rule:evenodd;stroke:#323232;stroke-width:0.625;stroke-linecap:round;stroke-linejoin:round;stroke-miterlimit:4;stroke-dasharray:none;stroke-opacity:1"
           sodipodi:nodetypes="cccccc"
           id="path11475"
           d="M 427.84158,483.19804 C 438.72858,484.54586 444.22647,489.62328 448.15804,510.28471 C 454.1714,540.38138 449.60865,551.21617 442.7153,551.22525 C 452.28844,543.06662 423.56572,533.353 428.26675,506.89875 C 420.73044,509.77649 404.5736,513.2715 404.16852,505.44054 C 402.92089,497.69126 408.21242,482.35167 427.84158,483.19804 z " />
        <path
           d="M 431.30865,484.33031 C 441.43182,486.81571 444.36844,498.18278 446.25908,507.08852 C 448.48817,519.44267 451.57574,532.54746 447.83505,544.8948 C 445.14129,550.50696 446.28028,545.33231 444.40603,542.59958 C 438.04395,533.42703 428.77794,524.73757 428.97639,512.69668 C 428.53582,509.91469 431.20177,503.24501 426.02221,505.48524 C 419.83372,507.31306 412.76879,509.67438 406.52875,506.95966 C 403.55196,502.50688 405.81915,496.11295 408.55446,491.93576 C 413.35388,484.61517 423.17081,482.40027 431.30865,484.33031 z "
           id="path11571"
           style="fill:url(#radialGradient11488);fill-opacity:1;fill-rule:evenodd;stroke:none;stroke-width:3.75;stroke-linecap:round;stroke-linejoin:round;stroke-miterlimit:4;stroke-opacity:1;display:inline" />
      </g>
    </g>
  </g>
</svg>
